<?xml version="1.0" encoding="UTF-8" standalone="no"?>
<!-- Created with Inkscape (http://www.inkscape.org/) -->

<svg
   xmlns:dc="http://purl.org/dc/elements/1.1/"
   xmlns:cc="http://creativecommons.org/ns#"
   xmlns:rdf="http://www.w3.org/1999/02/22-rdf-syntax-ns#"
   xmlns:svg="http://www.w3.org/2000/svg"
   xmlns="http://www.w3.org/2000/svg"
   xmlns:sodipodi="http://sodipodi.sourceforge.net/DTD/sodipodi-0.dtd"
   xmlns:inkscape="http://www.inkscape.org/namespaces/inkscape"
   width="180.0923mm"
   height="27.131758mm"
   viewBox="0 0 180.0923 27.131757"
   version="1.1"
   id="svg1030"
   sodipodi:docname="logo3.svg"
   inkscape:version="0.92.5 (0.92.5+68)">
  <defs
     id="defs1024" />
  <sodipodi:namedview
     id="base"
     pagecolor="#ffffff"
     bordercolor="#666666"
     borderopacity="1.0"
     inkscape:pageopacity="0.0"
     inkscape:pageshadow="2"
     inkscape:zoom="0.98994949"
     inkscape:cx="157.74732"
     inkscape:cy="-32.964112"
     inkscape:document-units="mm"
     inkscape:current-layer="layer1"
     showgrid="false"
     inkscape:window-width="1920"
     inkscape:window-height="980"
     inkscape:window-x="0"
     inkscape:window-y="27"
     inkscape:window-maximized="1" />
  <metadata
     id="metadata1027">
    <rdf:RDF>
      <cc:Work
         rdf:about="">
        <dc:format>image/svg+xml</dc:format>
        <dc:type
           rdf:resource="http://purl.org/dc/dcmitype/StillImage" />
      </cc:Work>
    </rdf:RDF>
  </metadata>
  <g
     inkscape:label="Layer 1"
     inkscape:groupmode="layer"
     id="layer1"
     transform="translate(147.26681,-115.83166)">
    <rect
       style="opacity:0.453;vector-effect:none;fill:#ffffff;fill-opacity:1;stroke:none;stroke-width:1.0437746;stroke-linecap:round;stroke-linejoin:round;stroke-miterlimit:4;stroke-dasharray:none;stroke-dashoffset:0;stroke-opacity:1;paint-order:normal"
       id="rect862"
       width="115.0701"
       height="22.417524"
       x="-143.71362"
       y="115.83166"
       rx="9.9086299e-13"
       ry="9.0949459e-13" />
    <path
       style="font-style:normal;font-variant:normal;font-weight:bold;font-stretch:normal;font-size:14.56008053px;line-height:1;font-family:'Proxima Nova';-inkscape-font-specification:'Proxima Nova Bold';font-variant-ligatures:normal;font-variant-position:normal;font-variant-caps:normal;font-variant-numeric:normal;font-variant-alternates:normal;font-feature-settings:normal;text-indent:0;text-align:start;text-decoration:none;text-decoration-line:none;text-decoration-style:solid;text-decoration-color:#000000;letter-spacing:0.40220475px;word-spacing:0.00682501px;text-transform:none;writing-mode:lr-tb;direction:ltr;text-orientation:upright;dominant-baseline:auto;baseline-shift:baseline;text-anchor:start;white-space:normal;shape-padding:0;fill:#000000;fill-opacity:1;stroke:none;stroke-width:1.03706193;stroke-linecap:round;stroke-linejoin:round;stroke-miterlimit:4;stroke-dasharray:none;stroke-dashoffset:0;stroke-opacity:0.42241743;paint-order:normal"
       d="M 151.58203 17.005859 C 142.9423 17.005859 137.6582 22.06746 137.6582 28.175781 C 137.6582 41.988367 158.79102 37.531822 158.79102 44.025391 C 158.79102 46.116528 156.69858 48.097656 152.40625 48.097656 C 147.34346 48.097656 143.32664 45.840997 140.74023 43.144531 L 136.50195 49.087891 C 139.91385 52.554813 144.97762 54.921875 152.02148 54.921875 C 161.92695 54.921875 166.71484 49.858219 166.71484 43.144531 C 166.71484 29.442005 145.63867 33.348834 145.63867 27.515625 C 145.63867 25.314428 147.50841 23.830078 150.86523 23.830078 C 154.60731 23.830078 158.56936 25.094207 161.54102 27.845703 L 165.88867 22.123047 C 162.25666 18.766184 157.41524 17.005859 151.58203 17.005859 z M 233.89062 17.005859 C 225.25088 17.005859 219.96875 22.06746 219.96875 28.175781 C 219.96875 41.988367 241.09961 37.531822 241.09961 44.025391 C 241.09961 46.116528 239.00915 48.097656 234.7168 48.097656 C 229.65401 48.097656 225.6372 45.840997 223.05078 43.144531 L 218.8125 49.087891 C 222.22437 52.554813 227.28816 54.921875 234.33203 54.921875 C 244.23747 54.921875 249.02539 49.858219 249.02539 43.144531 C 249.02539 29.442005 227.94727 33.348834 227.94727 27.515625 C 227.94727 25.314428 229.81894 23.830078 233.17578 23.830078 C 236.91783 23.830078 240.87993 25.094207 243.85156 27.845703 L 248.19922 22.123047 C 244.56722 18.766184 239.72383 17.005859 233.89062 17.005859 z M 571.77734 17.005859 C 563.1376 17.005859 557.85352 22.06746 557.85352 28.175781 C 557.85352 41.988367 578.98438 37.531822 578.98438 44.025391 C 578.98438 46.116528 576.89392 48.097656 572.60156 48.097656 C 567.53878 48.097656 563.52197 45.840997 560.93555 43.144531 L 556.69727 49.087891 C 560.10914 52.554813 565.17293 54.921875 572.2168 54.921875 C 582.12224 54.921875 586.91016 49.858219 586.91016 43.144531 C 586.91016 29.442005 565.83398 33.348834 565.83398 27.515625 C 565.83398 25.314428 567.7037 23.830078 571.06055 23.830078 C 574.8026 23.830078 578.7647 25.094207 581.73633 27.845703 L 586.08398 22.123047 C 582.45199 18.766184 577.61055 17.005859 571.77734 17.005859 z M 102.09766 17.556641 L 102.09766 54.261719 L 109.91211 54.261719 L 109.91211 41.21875 L 115.63477 41.21875 L 122.84375 54.261719 L 131.81445 54.261719 L 123.56055 40.283203 C 127.52274 39.347694 131.59375 35.880287 131.59375 29.386719 C 131.59375 22.562971 126.91677 17.556641 119.26758 17.556641 L 102.09766 17.556641 z M 204.72266 17.556641 L 204.72266 54.261719 L 212.53711 54.261719 L 212.53711 17.556641 L 204.72266 17.556641 z M 255.80664 17.556641 L 255.80664 54.261719 L 279.13867 54.261719 L 279.13867 47.382812 L 263.62109 47.382812 L 263.62109 17.556641 L 255.80664 17.556641 z M 296.42188 17.556641 L 282.22461 54.261719 L 291.13867 54.261719 L 293.45117 48.042969 L 309.18945 48.042969 L 311.44531 54.261719 L 320.35938 54.261719 L 306.2168 17.556641 L 296.42188 17.556641 z M 325.26953 17.556641 L 325.26953 54.261719 L 333.08398 54.261719 L 333.08398 28.5625 L 343.42969 54.261719 L 346.8418 54.261719 L 357.1875 28.5625 L 357.1875 54.261719 L 365.05664 54.261719 L 365.05664 17.556641 L 354.05078 17.556641 L 345.13477 39.732422 L 336.2207 17.556641 L 325.26953 17.556641 z M 399.7832 17.556641 L 385.58594 54.261719 L 394.5 54.261719 L 396.8125 48.042969 L 412.55078 48.042969 L 414.80664 54.261719 L 423.7207 54.261719 L 409.57812 17.556641 L 399.7832 17.556641 z M 428.63086 17.556641 L 428.63086 54.261719 L 436.44531 54.261719 L 436.44531 41.21875 L 442.16797 41.21875 L 449.37695 54.261719 L 458.34766 54.261719 L 450.0918 40.283203 C 454.05397 39.347694 458.12695 35.880287 458.12695 29.386719 C 458.12695 22.562971 453.44998 17.556641 445.80078 17.556641 L 428.63086 17.556641 z M 483.58398 17.556641 L 483.58398 54.261719 L 491.39844 54.261719 L 491.39844 41.21875 L 497.12109 41.21875 L 504.33008 54.261719 L 513.30078 54.261719 L 505.04688 40.283203 C 509.00905 39.347694 513.08008 35.880287 513.08008 29.386719 C 513.08008 22.562971 508.40311 17.556641 500.75391 17.556641 L 483.58398 17.556641 z M 530.75586 17.556641 L 516.55859 54.261719 L 525.47461 54.261719 L 527.78516 48.042969 L 543.52344 48.042969 L 545.7793 54.261719 L 554.69531 54.261719 L 540.55273 17.556641 L 530.75586 17.556641 z M 589.24609 17.556641 L 603.38867 39.238281 L 603.38867 54.261719 L 611.20312 54.261719 L 611.20312 39.238281 L 625.23633 17.556641 L 616.32227 17.556641 L 607.29688 32.304688 L 598.16211 17.556641 L 589.24609 17.556641 z M 630.14258 17.556641 L 630.14258 54.261719 L 637.95703 54.261719 L 637.95703 17.556641 L 630.14258 17.556641 z M 646.71094 17.556641 L 646.71094 54.261719 L 661.18359 54.261719 C 672.68491 54.261719 680.66406 46.996599 680.66406 35.935547 C 680.66406 24.874457 672.68491 17.556641 661.18359 17.556641 L 646.71094 17.556641 z M 109.91211 24.435547 L 118.11133 24.435547 C 121.24803 24.435547 123.61523 26.305005 123.61523 29.386719 C 123.61523 32.468394 121.24803 34.339844 118.11133 34.339844 L 109.91211 34.339844 L 109.91211 24.435547 z M 436.44531 24.435547 L 444.64453 24.435547 C 447.78126 24.435547 450.14844 26.305005 450.14844 29.386719 C 450.14844 32.468394 447.78126 34.339844 444.64453 34.339844 L 436.44531 34.339844 L 436.44531 24.435547 z M 491.39844 24.435547 L 499.59766 24.435547 C 502.73438 24.435547 505.10156 26.305005 505.10156 29.386719 C 505.10156 32.468394 502.73438 34.339844 499.59766 34.339844 L 491.39844 34.339844 L 491.39844 24.435547 z M 654.52539 24.435547 L 661.18359 24.435547 C 668.72273 24.435547 672.68359 29.441978 672.68359 35.935547 C 672.68359 42.153928 668.44758 47.382812 661.18359 47.382812 L 654.52539 47.382812 L 654.52539 24.435547 z M 301.32031 25.371094 L 307.04297 41.164062 L 295.5957 41.164062 L 301.32031 25.371094 z M 404.68164 25.371094 L 410.4043 41.164062 L 398.95703 41.164062 L 404.68164 25.371094 z M 535.6543 25.371094 L 541.37695 41.164062 L 529.93164 41.164062 L 535.6543 25.371094 z M 463.53125 37.972656 L 463.53125 43.916016 L 476.73828 43.916016 L 476.73828 37.972656 L 463.53125 37.972656 z M 176.9082 45.951172 C 174.48685 45.951172 172.45117 47.986849 172.45117 50.408203 C 172.45117 52.82952 174.48685 54.867188 176.9082 54.867188 C 179.32952 54.867188 181.36523 52.82952 181.36523 50.408203 C 181.36523 47.986849 179.32952 45.951172 176.9082 45.951172 z "
       transform="matrix(0.26458333,0,0,0.26458333,-147.26681,115.83166)"
       id="path834" />
    <path
       style="font-style:normal;font-variant:normal;font-weight:normal;font-stretch:normal;font-size:11.09129333px;line-height:1;font-family:'Proxima Nova';-inkscape-font-specification:'Proxima Nova';font-variant-ligatures:normal;font-variant-position:normal;font-variant-caps:normal;font-variant-numeric:normal;font-variant-alternates:normal;font-feature-settings:normal;text-indent:0;text-align:start;text-decoration:none;text-decoration-line:none;text-decoration-style:solid;text-decoration-color:#000000;letter-spacing:0.3063837px;word-spacing:0.00519903px;text-transform:none;writing-mode:lr-tb;direction:ltr;text-orientation:upright;dominant-baseline:auto;baseline-shift:baseline;text-anchor:start;white-space:normal;shape-padding:0;fill:#999999;fill-opacity:1;stroke:none;stroke-width:0.78999269;stroke-linecap:round;stroke-linejoin:round;stroke-miterlimit:4;stroke-dasharray:none;stroke-dashoffset:0;stroke-opacity:0.42241743;paint-order:normal"
       d="M 139.65039 73.578125 C 131.35025 73.578125 125.77539 79.782786 125.77539 88.041016 C 125.77539 96.299208 131.35025 102.50391 139.65039 102.50391 C 147.90858 102.50391 153.52734 96.299208 153.52734 88.041016 C 153.52734 79.782786 147.90858 73.578125 139.65039 73.578125 z M 456.35156 73.578125 C 448.38679 73.578125 441.97266 79.363598 441.97266 88.041016 C 441.97266 96.718433 448.38679 102.54492 456.35156 102.54492 C 460.92083 102.54492 464.73495 100.61708 467.33398 97.724609 L 467.33398 87.621094 L 454.25586 87.621094 L 454.25586 90.724609 L 463.85547 90.724609 L 463.85547 96.425781 C 462.47212 97.809126 459.70515 99.443359 456.35156 99.443359 C 450.23126 99.443359 445.57813 94.664335 445.57812 88.041016 C 445.57812 81.375743 450.23126 76.681641 456.35156 76.681641 C 459.70515 76.681641 462.68077 78.273437 464.44141 80.537109 L 467.20898 78.818359 C 464.73571 75.758227 461.29811 73.578125 456.35156 73.578125 z M 102.82422 74.039062 L 102.82422 102 L 106.30469 102 L 106.30469 92.609375 L 109.11328 89.423828 L 119.71875 102 L 124.03711 102 L 111.37695 87.328125 L 123.0293 74.039062 L 118.66992 74.039062 L 106.30469 88.501953 L 106.30469 74.039062 L 102.82422 74.039062 z M 157.08594 74.039062 L 157.08594 77.142578 L 165.93164 77.142578 L 165.93164 102 L 169.41016 102 L 169.41016 77.142578 L 178.29688 77.142578 L 178.29688 74.039062 L 157.08594 74.039062 z M 189.63867 74.039062 L 178.4043 102 L 182.38672 102 L 184.85938 95.796875 L 198.77734 95.796875 L 201.25 102 L 205.23242 102 L 193.95508 74.039062 L 189.63867 74.039062 z M 222.03125 74.039062 L 222.03125 102 L 225.50977 102 L 225.50977 90.890625 L 233.26562 90.890625 C 238.79905 90.890625 242.02734 87.034104 242.02734 82.464844 C 242.02734 77.895584 238.88289 74.039062 233.26562 74.039062 L 222.03125 74.039062 z M 252.98242 74.039062 L 241.74805 102 L 245.73047 102 L 248.20312 95.796875 L 262.12109 95.796875 L 264.59375 102 L 268.57617 102 L 257.29883 74.039062 L 252.98242 74.039062 z M 273.39062 74.039062 L 273.39062 102 L 289.86328 102 L 289.86328 98.898438 L 276.86914 98.898438 L 276.86914 74.039062 L 273.39062 74.039062 z M 295.91797 74.039062 L 295.91797 102 L 314.23633 102 L 314.23633 98.898438 L 299.39648 98.898438 L 299.39648 89.255859 L 313.94336 89.255859 L 313.94336 86.154297 L 299.39648 86.154297 L 299.39648 77.142578 L 314.23633 77.142578 L 314.23633 74.039062 L 295.91797 74.039062 z M 320.90039 74.039062 L 320.90039 102 L 324.38086 102 L 324.38086 78.986328 L 333.85352 102 L 335.2793 102 L 344.79492 78.986328 L 344.79492 102 L 348.27344 102 L 348.27344 74.039062 L 343.28516 74.039062 L 334.56641 95.083984 L 325.88867 74.039062 L 320.90039 74.039062 z M 355.95508 74.039062 L 355.95508 102 L 368.69922 102 C 373.81344 102 376.78906 98.94047 376.78906 94.455078 C 376.78906 91.101466 374.31615 88.041218 371.33984 87.580078 C 373.89695 87.035146 376.24414 84.68725 376.24414 81.166016 C 376.24414 76.974028 373.267 74.039062 368.4043 74.039062 L 355.95508 74.039062 z M 391.81836 74.039062 L 380.58398 102 L 384.56641 102 L 387.03906 95.796875 L 400.95703 95.796875 L 403.42969 102 L 407.41211 102 L 396.13672 74.039062 L 391.81836 74.039062 z M 412.22656 74.039062 L 412.22656 102 L 415.70508 102 L 415.70508 79.699219 L 432.01172 102 L 435.36523 102 L 435.36523 74.039062 L 431.88672 74.039062 L 431.88672 95.880859 L 415.78906 74.039062 L 412.22656 74.039062 z M 139.65039 76.681641 C 145.89644 76.681641 149.92188 81.501526 149.92188 88.041016 C 149.92188 94.53859 145.89644 99.400391 139.65039 99.400391 C 133.36243 99.400391 129.38086 94.53859 129.38086 88.041016 C 129.38086 81.501526 133.36243 76.681641 139.65039 76.681641 z M 225.50977 77.142578 L 232.8457 77.142578 C 236.15737 77.142578 238.42188 79.320844 238.42188 82.464844 C 238.42188 85.608806 236.15737 87.789062 232.8457 87.789062 L 225.50977 87.789062 L 225.50977 77.142578 z M 359.43359 77.142578 L 367.81836 77.142578 C 370.96235 77.142578 372.63867 79.154722 372.63867 81.669922 C 372.63867 84.227037 370.96235 86.154297 367.81836 86.154297 L 359.43359 86.154297 L 359.43359 77.142578 z M 191.81836 77.644531 L 197.72852 92.693359 L 185.86523 92.693359 L 191.81836 77.644531 z M 255.16211 77.644531 L 261.07227 92.693359 L 249.20898 92.693359 L 255.16211 77.644531 z M 393.99805 77.644531 L 399.9082 92.693359 L 388.04492 92.693359 L 393.99805 77.644531 z M 359.43359 89.255859 L 367.98633 89.255859 C 371.42376 89.255859 373.18359 91.521048 373.18359 94.078125 C 373.18359 97.054465 371.25608 98.898438 367.98633 98.898438 L 359.43359 98.898438 L 359.43359 89.255859 z "
       transform="matrix(0.26458333,0,0,0.26458333,-147.26681,115.83166)"
       id="path887" />
    <rect
       style="opacity:1;vector-effect:none;fill:#000000;fill-opacity:1;stroke:none;stroke-width:0.20000003;stroke-linecap:round;stroke-linejoin:round;stroke-miterlimit:4;stroke-dasharray:none;stroke-dashoffset:0;stroke-opacity:1;paint-order:stroke markers fill"
       id="rect940"
       width="0.31733283"
       height="2.108089"
       x="-139.1721"
       y="119.83515" />
    <path
       sodipodi:type="inkscape:offset"
       inkscape:radius="1.2464978"
       inkscape:original="M -884.71875 -301.87695 C -896.36646 -296.10131 -903.3542 -289.05344 -905.83984 -279.98047 C -907.52094 -273.84423 -907.14351 -266.78202 -904.73633 -258.55078 C -903.39588 -253.96722 -901.43385 -249.0252 -898.8457 -243.67773 L -870.59375 -243.67773 C -868.00557 -249.02523 -866.04369 -253.96721 -864.70312 -258.55078 C -862.29575 -266.78199 -861.91882 -273.84425 -863.59961 -279.98047 C -866.0848 -289.05344 -873.07104 -296.10131 -884.71875 -301.87695 z "
       style="opacity:1;vector-effect:none;fill:#5fba48;fill-opacity:1;stroke:none;stroke-width:0.56548941;stroke-linecap:round;stroke-linejoin:round;stroke-miterlimit:4;stroke-dasharray:none;stroke-dashoffset:0;stroke-opacity:1;paint-order:stroke markers fill"
       id="path903"
       d="m -884.76758,-303.12305 a 1.2466224,1.2466224 0 0 0 -0.50586,0.12891 c -11.83152,5.86679 -19.17005,13.19511 -21.76953,22.68359 -1.75806,6.41716 -1.34187,13.72747 1.10938,22.10938 1.36467,4.66639 3.35506,9.67022 5.96679,15.0664 a 1.2466224,1.2466224 0 0 0 1.1211,0.70313 h 28.25195 a 1.2466224,1.2466224 0 0 0 1.12109,-0.70313 c 2.61177,-5.39623 4.60202,-10.40004 5.9668,-15.0664 2.45145,-8.38194 2.86709,-15.69233 1.10938,-22.10938 -2.59899,-9.48841 -9.93602,-16.81678 -21.76758,-22.68359 a 1.2466224,1.2466224 0 0 0 -0.60352,-0.12891 z"
       transform="matrix(0.35367595,0,0,0.35367595,173.91286,228.44822)" />
    <path
       style="opacity:1;vector-effect:none;fill:#005de7;fill-opacity:1;stroke:none;stroke-width:0.20000003;stroke-linecap:round;stroke-linejoin:round;stroke-miterlimit:4;stroke-dasharray:none;stroke-dashoffset:0;stroke-opacity:1;paint-order:stroke markers fill"
       d="m -139.00478,121.65928 c -4.11951,2.0427 -6.59091,4.53537 -7.47002,7.74425 h 14.93936 c -0.87896,-3.20888 -3.34981,-5.70155 -7.46934,-7.74425 z"
       id="rect876"
       inkscape:connector-curvature="0" />
    <path
       style="opacity:1;vector-effect:none;fill:#5fba48;fill-opacity:1;stroke:none;stroke-width:0.20000003;stroke-linecap:round;stroke-linejoin:round;stroke-miterlimit:4;stroke-dasharray:none;stroke-dashoffset:0;stroke-opacity:1;paint-order:stroke markers fill"
       d="m -146.4748,129.40353 c -0.59456,2.17024 -0.46109,4.66798 0.39029,7.57918 h 14.15877 c 0.85143,-2.91118 0.98475,-5.40895 0.3903,-7.57918 z"
       id="rect885"
       inkscape:connector-curvature="0" />
    <path
       style="fill:#ee1a27;fill-opacity:1;stroke:none;stroke-width:0.26458332px;stroke-linecap:butt;stroke-linejoin:miter;stroke-opacity:1"
       d="m -146.08451,136.98271 c 0.47409,1.62107 1.168,3.36896 2.08336,5.26022 h 9.99205 c 0.91537,-1.89127 1.60923,-3.63912 2.08336,-5.26022 z"
       id="path898"
       inkscape:connector-curvature="0"
       sodipodi:nodetypes="ccccc" />
    <text
       xml:space="preserve"
       style="font-style:normal;font-variant:normal;font-weight:bold;font-stretch:normal;font-size:1.8467164px;line-height:0;font-family:'Proxima Nova';-inkscape-font-specification:'Proxima Nova Bold';font-variant-ligatures:normal;font-variant-position:normal;font-variant-caps:normal;font-variant-numeric:normal;font-variant-alternates:normal;font-feature-settings:normal;text-indent:0;text-align:start;text-decoration:none;text-decoration-line:none;text-decoration-style:solid;text-decoration-color:#000000;letter-spacing:0px;word-spacing:0px;text-transform:none;writing-mode:lr-tb;direction:ltr;text-orientation:upright;dominant-baseline:auto;baseline-shift:baseline;text-anchor:start;white-space:normal;shape-padding:0;opacity:1;vector-effect:none;fill:#ffffff;fill-opacity:1;stroke:none;stroke-width:0.20000003;stroke-linecap:round;stroke-linejoin:round;stroke-miterlimit:4;stroke-dasharray:none;stroke-dashoffset:0;stroke-opacity:0.42241743;paint-order:normal"
       x="-144.2986"
       y="128.10448"
       id="text914"><tspan
         sodipodi:role="line"
         id="tspan912"
         x="-144.2986"
         y="128.10448"
         style="font-style:normal;font-variant:normal;font-weight:normal;font-stretch:normal;font-family:splekta;-inkscape-font-specification:splekta;fill:#ffffff;stroke-width:0.20000003">RUMAH SAKIT</tspan></text>
    <text
       id="text918"
       y="133.87488"
       x="-145.98183"
       style="font-style:normal;font-variant:normal;font-weight:bold;font-stretch:normal;font-size:2.91567802px;line-height:0;font-family:'Proxima Nova';-inkscape-font-specification:'Proxima Nova Bold';font-variant-ligatures:normal;font-variant-position:normal;font-variant-caps:normal;font-variant-numeric:normal;font-variant-alternates:normal;font-feature-settings:normal;text-indent:0;text-align:start;text-decoration:none;text-decoration-line:none;text-decoration-style:solid;text-decoration-color:#000000;letter-spacing:0px;word-spacing:0px;text-transform:none;writing-mode:lr-tb;direction:ltr;text-orientation:upright;dominant-baseline:auto;baseline-shift:baseline;text-anchor:start;white-space:normal;shape-padding:0;opacity:1;vector-effect:none;fill:#000000;fill-opacity:1;stroke:none;stroke-width:0.20000003;stroke-linecap:round;stroke-linejoin:round;stroke-miterlimit:4;stroke-dasharray:none;stroke-dashoffset:0;stroke-opacity:0.42241743;paint-order:normal"
       xml:space="preserve"><tspan
         style="font-style:normal;font-variant:normal;font-weight:normal;font-stretch:normal;font-family:splekta;-inkscape-font-specification:splekta;fill:#000000;stroke-width:0.20000003"
         y="133.87488"
         x="-145.98183"
         id="tspan916"
         sodipodi:role="line">galang</tspan></text>
    <text
       id="text926"
       y="140.14844"
       x="-143.79593"
       style="font-style:normal;font-variant:normal;font-weight:bold;font-stretch:normal;font-size:1.8467164px;line-height:0;font-family:'Proxima Nova';-inkscape-font-specification:'Proxima Nova Bold';font-variant-ligatures:normal;font-variant-position:normal;font-variant-caps:normal;font-variant-numeric:normal;font-variant-alternates:normal;font-feature-settings:normal;text-indent:0;text-align:start;text-decoration:none;text-decoration-line:none;text-decoration-style:solid;text-decoration-color:#000000;letter-spacing:0px;word-spacing:0px;text-transform:none;writing-mode:lr-tb;direction:ltr;text-orientation:upright;dominant-baseline:auto;baseline-shift:baseline;text-anchor:start;white-space:normal;shape-padding:0;opacity:1;vector-effect:none;fill:#ffffff;fill-opacity:1;stroke:none;stroke-width:0.20000003;stroke-linecap:round;stroke-linejoin:round;stroke-miterlimit:4;stroke-dasharray:none;stroke-dashoffset:0;stroke-opacity:0.42241743;paint-order:normal"
       xml:space="preserve"><tspan
         style="font-style:normal;font-variant:normal;font-weight:normal;font-stretch:normal;font-family:splekta;-inkscape-font-specification:splekta;fill:#ffffff;stroke-width:0.20000003"
         y="140.14844"
         x="-143.79593"
         id="tspan924"
         sodipodi:role="line">SEMARANG</tspan></text>
    <path
       style="opacity:1;vector-effect:none;fill:#ebd01d;fill-opacity:1;stroke:none;stroke-width:0.20000003;stroke-linecap:round;stroke-linejoin:round;stroke-miterlimit:4;stroke-dasharray:none;stroke-dashoffset:0;stroke-opacity:1;paint-order:stroke markers fill"
       d="m -138.85444,116.37801 a 1.9872596,1.9872596 0 0 0 -1.98722,1.98722 1.9872596,1.9872596 0 0 0 1.98722,1.98724 1.9872596,1.9872596 0 0 0 1.90582,-1.42929 1.4286786,1.4286786 0 0 1 -1.31496,0.87066 1.4286786,1.4286786 0 0 1 -1.42861,-1.42861 1.4286786,1.4286786 0 0 1 1.42861,-1.42861 1.4286786,1.4286786 0 0 1 1.31995,0.88529 1.9872596,1.9872596 0 0 0 -1.91081,-1.4439 z"
       id="path942"
       inkscape:connector-curvature="0" />
    <path
       sodipodi:type="star"
       style="opacity:1;vector-effect:none;fill:#ebd01d;fill-opacity:1;stroke:none;stroke-width:0.51246995;stroke-linecap:round;stroke-linejoin:round;stroke-miterlimit:4;stroke-dasharray:none;stroke-dashoffset:0;stroke-opacity:1;paint-order:stroke markers fill"
       id="path947"
       sodipodi:sides="5"
       sodipodi:cx="-143.72545"
       sodipodi:cy="-88.15773"
       sodipodi:r1="2.7058976"
       sodipodi:r2="0.96060401"
       sodipodi:arg1="0.52359878"
       sodipodi:arg2="1.1519173"
       inkscape:flatsided="false"
       inkscape:rounded="0"
       inkscape:randomized="0"
       d="m -141.38207,-86.804781 -1.95267,-0.475394 -0.9533,1.769212 -0.15128,-2.003998 -1.9772,-0.359926 1.85916,-0.763145 -0.26868,-1.991659 1.30031,1.532348 1.81116,-0.870986 -1.05554,1.710188 z"
       inkscape:transform-center-x="-0.22723282"
       inkscape:transform-center-y="-0.38291596"
       transform="matrix(0.37444943,0.15186361,-0.16791692,0.33865104,-99.357141,170.08215)" />
  </g>
</svg>
