<?xml version="1.0" standalone="no"?>
<!DOCTYPE svg PUBLIC "-//W3C//DTD SVG 20010904//EN"
 "http://www.w3.org/TR/2001/REC-SVG-20010904/DTD/svg10.dtd">
<svg version="1.0" xmlns="http://www.w3.org/2000/svg"
 width="90.000000pt" height="90.000000pt" viewBox="0 0 90.000000 90.000000"
 preserveAspectRatio="xMidYMid meet">

<g transform="translate(0.000000,90.000000) scale(0.100000,-0.100000)"
fill="#000000" stroke="none">
<path d="M360 889 c-80 -6 -172 -25 -247 -51 -38 -14 -49 -39 -83 -173 -41
-166 -26 -422 32 -543 18 -36 64 -60 171 -89 166 -44 305 -42 464 7 104 32
119 43 143 107 62 165 71 346 26 516 -43 160 -42 160 -181 199 -87 24 -214 35
-325 27z m223 -69 c110 -41 193 -125 233 -236 79 -216 -43 -456 -264 -520 -72
-21 -179 -14 -257 16 -83 32 -182 131 -214 215 -60 155 -26 320 87 434 111
111 270 145 415 91z"/>
<path d="M430 800 c0 -12 8 -17 25 -17 14 0 23 2 21 5 -3 3 -1 11 5 18 8 10 3
13 -20 12 -22 -1 -31 -6 -31 -18z"/>
<path d="M315 797 c-12 -7 -19 -20 -17 -29 4 -19 22 -25 22 -7 0 6 9 8 22 3
20 -6 21 -5 10 9 -8 9 -11 21 -7 27 8 13 -4 11 -30 -3z"/>
<path d="M527 790 c-3 -14 1 -24 15 -31 27 -14 48 -4 48 23 -1 20 -2 21 -11 6
-14 -26 -42 -24 -34 2 3 11 2 20 -3 20 -5 0 -12 -9 -15 -20z"/>
<path d="M253 753 c6 -26 -9 -41 -26 -24 -18 18 -29 13 -17 -9 13 -25 22 -25
49 -2 19 16 19 18 4 37 -15 20 -15 20 -10 -2z"/>
<path d="M379 751 c-80 -17 -167 -88 -211 -171 -19 -37 -23 -60 -23 -135 0
-86 2 -94 35 -150 40 -67 117 -128 184 -146 23 -6 71 -9 107 -7 116 9 205 73
257 186 21 47 24 65 20 136 -3 66 -10 92 -31 128 -31 53 -91 109 -146 138 -45
23 -137 33 -192 21z m103 -114 c35 -106 32 -204 -9 -249 -11 -13 -13 -21 -5
-30 5 -7 9 -29 7 -48 -2 -19 -4 -41 -4 -47 -1 -15 -47 -17 -56 -3 -3 6 1 13 9
16 19 7 22 60 4 67 -10 3 -10 10 2 32 17 33 17 112 0 145 -17 32 5 170 27 170
5 0 16 -24 25 -53z m-132 -6 c0 -4 -9 -20 -20 -34 -24 -30 -25 -38 -5 -31 31
12 14 -29 -30 -72 -43 -41 -56 -76 -35 -89 6 -3 10 4 10 17 0 26 26 68 42 68
13 0 2 -64 -18 -103 -9 -16 -13 -34 -11 -40 2 -7 10 0 17 16 7 15 17 27 21 27
13 0 22 -47 15 -76 -7 -28 0 -64 13 -64 5 0 6 20 3 45 -2 25 0 45 5 45 13 0
43 -54 43 -78 0 -10 10 -23 23 -29 33 -15 64 3 71 42 4 18 15 40 25 49 17 16
19 16 24 -5 3 -11 2 -32 -3 -45 -6 -14 -6 -24 0 -24 14 0 22 38 15 70 -7 33 1
70 16 70 5 0 15 -12 21 -27 9 -22 12 -24 15 -11 3 10 -3 28 -11 40 -9 12 -16
40 -16 62 0 38 0 39 20 21 11 -10 20 -31 20 -47 0 -17 4 -27 10 -23 22 13 8
49 -35 91 -25 24 -45 50 -45 59 0 18 5 19 33 3 17 -9 15 -3 -10 26 -37 42 -41
56 -15 56 21 0 42 -21 65 -65 l16 -30 1 38 c0 43 16 49 31 10 7 -18 6 -36 -1
-56 -5 -17 -9 -46 -9 -66 l2 -36 6 43 c7 39 25 72 35 61 2 -2 7 -18 11 -36 6
-29 1 -38 -39 -81 -25 -27 -46 -58 -46 -68 0 -13 7 -8 25 18 29 44 65 67 65
44 0 -33 -21 -67 -47 -77 -30 -11 -93 -67 -93 -82 0 -5 13 5 29 22 34 36 62
42 54 11 -9 -34 -52 -60 -97 -60 -22 0 -51 -3 -64 -6 -22 -6 -22 -7 -5 -27 18
-20 17 -20 -7 -12 -31 9 -57 9 -90 0 -24 -6 -24 -6 -6 9 27 22 17 27 -56 35
-74 8 -83 12 -103 52 -15 27 -14 29 4 29 11 0 31 -13 44 -30 36 -42 44 -38 10
5 -15 19 -44 41 -64 49 -26 11 -40 24 -48 47 -22 63 10 53 69 -21 l20 -25 -11
30 c-6 16 -26 43 -45 58 -28 23 -34 35 -34 67 0 21 4 41 9 45 13 7 31 -27 31
-57 0 -13 5 -30 11 -38 10 -15 9 5 -7 109 -4 24 -1 48 7 62 13 23 14 23 20
-21 l5 -45 13 30 c7 16 20 38 28 47 17 19 53 25 53 9z"/>
<path d="M270 525 c-7 -9 -10 -18 -7 -21 3 -3 10 4 17 15 13 25 8 27 -10 6z"/>
<path d="M610 521 c0 -5 7 -15 17 -22 15 -13 15 -12 4 9 -12 23 -21 28 -21 13z"/>
<path d="M610 742 c0 -5 7 -16 16 -23 14 -11 18 -10 30 6 8 10 11 21 8 24 -3
3 -9 -1 -14 -9 -7 -11 -11 -11 -24 -1 -9 8 -16 9 -16 3z"/>
<path d="M152 688 c-17 -17 -15 -35 5 -42 18 -7 33 9 33 37 0 20 -20 23 -38 5z
m28 -12 c0 -3 -4 -8 -10 -11 -5 -3 -10 -1 -10 4 0 6 5 11 10 11 6 0 10 -2 10
-4z"/>
<path d="M670 696 c0 -3 11 -17 24 -31 l24 -25 6 22 c9 36 8 38 -24 38 -16 0
-30 -2 -30 -4z"/>
<path d="M744 625 c-16 -12 -16 -14 -3 -15 12 0 15 -7 11 -25 -5 -30 18 -35
39 -8 12 15 12 16 -4 10 -14 -5 -16 -2 -11 17 7 30 -7 40 -32 21z"/>
<path d="M110 624 c0 -4 7 -12 17 -19 21 -16 9 -35 -19 -27 -14 3 -19 2 -14
-6 12 -19 44 -14 51 8 4 12 1 27 -5 35 -13 15 -30 20 -30 9z"/>
<path d="M76 514 c-12 -30 -6 -44 17 -44 20 0 23 4 19 30 -5 32 -26 40 -36 14z
m24 -14 c0 -5 -5 -10 -11 -10 -5 0 -7 5 -4 10 3 6 8 10 11 10 2 0 4 -4 4 -10z"/>
<path d="M770 500 c0 -30 13 -37 39 -21 19 12 4 51 -20 51 -14 0 -19 -7 -19
-30z m37 4 c2 -6 -3 -11 -12 -11 -8 0 -15 7 -15 15 0 15 22 12 27 -4z"/>
<path d="M160 235 c-10 -13 -10 -19 5 -35 10 -11 23 -20 29 -20 6 0 3 7 -6 14
-19 14 -24 36 -8 36 5 0 13 -8 19 -17 5 -10 13 -15 17 -10 7 7 -23 47 -36 47
-4 0 -13 -7 -20 -15z"/>
<path d="M700 226 c0 -9 -8 -16 -17 -16 -16 0 -16 -1 0 -17 12 -12 20 -14 25
-7 4 6 16 14 27 18 16 7 17 9 5 14 -8 2 -21 9 -27 15 -9 7 -13 5 -13 -7z"/>
<path d="M222 170 c-7 -11 -9 -20 -4 -20 10 0 32 22 32 32 0 15 -15 8 -28 -12z"/>
<path d="M626 175 c-19 -14 -19 -15 -1 -35 17 -19 19 -19 36 -4 21 19 15 38
-8 29 -13 -4 -14 -3 -3 10 16 19 1 19 -24 0z"/>
<path d="M262 153 c-15 -27 -15 -36 0 -27 6 4 16 0 22 -8 10 -14 13 -13 23 8
10 21 9 24 -7 24 -10 0 -20 6 -22 12 -3 8 -9 5 -16 -9z"/>
<path d="M558 143 c-19 -5 -23 -20 -9 -41 7 -12 12 -12 30 -1 11 8 21 22 21
31 0 18 -9 20 -42 11z m29 -19 c-3 -3 -12 -4 -19 -1 -8 3 -5 6 6 6 11 1 17 -2
13 -5z"/>
<path d="M355 110 c-18 -19 -17 -20 1 -20 11 0 25 -5 32 -12 17 -17 24 -4 13
26 -12 31 -22 33 -46 6z"/>
<path d="M490 114 c-9 -10 -16 -12 -24 -4 -16 16 -36 12 -36 -9 0 -24 16 -36
23 -19 4 10 8 9 16 -2 9 -13 12 -13 20 -1 5 7 14 10 20 7 7 -4 11 1 11 13 0
27 -15 34 -30 15z"/>
</g>
</svg>
