<?xml version="1.0" encoding="iso-8859-1"?>
<!-- Generator: Adobe Illustrator 19.0.0, SVG Export Plug-In . SVG Version: 6.00 Build 0)  -->
<svg version="1.1" id="Layer_1" xmlns="http://www.w3.org/2000/svg" xmlns:xlink="http://www.w3.org/1999/xlink" x="0px" y="0px"
	 viewBox="0 0 512 512" style="enable-background:new 0 0 512 512;" xml:space="preserve">
<path style="fill:#CEE8FA;" d="M326.791,497.041h-141.58v-86.485c0-17.732,14.376-32.108,32.108-32.108h77.363
	c17.732,0,32.108,14.376,32.108,32.108v86.485L326.791,497.041L326.791,497.041z"/>
<g>
	<path style="fill:#2D527C;" d="M326.79,512H185.21c-8.262,0-14.959-6.697-14.959-14.959v-86.485
		c0-25.954,21.114-47.067,47.067-47.067h77.364c25.952,0,47.067,21.115,47.067,47.067v86.485
		C341.748,505.303,335.051,512,326.79,512z M200.17,482.082h111.662v-71.526c0-9.456-7.693-17.149-17.149-17.149h-77.364
		c-9.456,0-17.149,7.693-17.149,17.149V482.082z"/>
	<path style="fill:#2D527C;" d="M113.893,512H22.647c-8.262,0-14.959-6.697-14.959-14.959V354.93
		c0-30.518,24.829-55.346,55.346-55.346c8.262,0,14.959,6.697,14.959,14.959s-6.697,14.959-14.959,14.959
		c-14.021,0-25.429,11.406-25.429,25.429v127.152h76.287c8.262,0,14.959,6.697,14.959,14.959S122.155,512,113.893,512z"/>
	<path style="fill:#2D527C;" d="M489.355,512h-91.246c-8.262,0-14.959-6.697-14.959-14.959s6.697-14.959,14.959-14.959h76.287
		V354.93c0-14.021-11.406-25.429-25.429-25.429c-8.262,0-14.959-6.697-14.959-14.959s6.697-14.959,14.959-14.959
		c30.518,0,55.346,24.829,55.346,55.346V497.04C504.314,505.303,497.617,512,489.355,512z"/>
	<path style="fill:#2D527C;" d="M336.272,323.524H175.729c-8.262,0-14.959-6.697-14.959-14.959s6.697-14.959,14.959-14.959h160.543
		c8.262,0,14.959,6.697,14.959,14.959C351.231,316.827,344.534,323.524,336.272,323.524z"/>
	<path style="fill:#2D527C;" d="M336.272,260.696H175.729c-8.262,0-14.959-6.697-14.959-14.959s6.697-14.959,14.959-14.959h160.543
		c8.262,0,14.959,6.697,14.959,14.959S344.534,260.696,336.272,260.696z"/>
	<path style="fill:#2D527C;" d="M398.108,512H113.893c-8.262,0-14.959-6.697-14.959-14.959V182.014
		c0-34.794,27.185-63.758,61.891-65.939c0.313-0.019,0.625-0.03,0.938-0.03h188.475c0.313,0,0.625,0.009,0.938,0.03
		c34.705,2.181,61.891,31.144,61.891,65.939v315.029C413.067,505.303,406.369,512,398.108,512z M128.852,482.082h254.297V182.014
		c0-18.896-14.645-34.649-33.421-36.051H162.273c-18.776,1.402-33.421,17.155-33.421,36.051V482.082L128.852,482.082z"/>
</g>
<path style="fill:#CEE8FA;" d="M256.001,14.959L256.001,14.959c-17.776,0-32.187,14.41-32.187,32.187v25.273h-25.273
	c-17.776,0-32.187,14.41-32.187,32.187l0,0c0,17.776,14.41,32.187,32.187,32.187h25.273v25.273c0,17.776,14.41,32.187,32.187,32.187
	l0,0c17.776,0,32.187-14.41,32.187-32.187v-25.273h25.273c17.776,0,32.187-14.41,32.187-32.187l0,0
	c0-17.776-14.41-32.187-32.187-32.187h-25.273V47.146C288.187,29.369,273.777,14.959,256.001,14.959z"/>
<path style="fill:#2D527C;" d="M256.001,209.209c-25.996,0-47.146-21.149-47.146-47.146v-10.314h-10.314
	c-25.996,0-47.146-21.149-47.146-47.146s21.149-47.146,47.146-47.146h10.314V47.143C208.855,21.149,230.004,0,256.001,0
	s47.146,21.149,47.146,47.146V57.46h10.314c25.996,0,47.146,21.149,47.146,47.146s-21.149,47.146-47.146,47.146h-10.314v10.314
	C303.146,188.06,281.997,209.209,256.001,209.209z M198.541,87.378c-9.499,0-17.228,7.729-17.228,17.228s7.729,17.228,17.228,17.228
	h25.273c8.262,0,14.959,6.697,14.959,14.959v25.273c0,9.499,7.729,17.228,17.228,17.228c9.499,0,17.228-7.729,17.228-17.228v-25.275
	c0-8.262,6.697-14.959,14.959-14.959h25.273c9.499,0,17.228-7.729,17.228-17.228s-7.729-17.228-17.228-17.228h-25.273
	c-8.262,0-14.959-6.697-14.959-14.959V47.146c0-9.499-7.729-17.228-17.228-17.228s-17.228,7.729-17.228,17.228v25.273
	c0,8.262-6.697,14.959-14.959,14.959C223.814,87.378,198.541,87.378,198.541,87.378z"/>
<g>
</g>
<g>
</g>
<g>
</g>
<g>
</g>
<g>
</g>
<g>
</g>
<g>
</g>
<g>
</g>
<g>
</g>
<g>
</g>
<g>
</g>
<g>
</g>
<g>
</g>
<g>
</g>
<g>
</g>
</svg>
